<svg class="svg-icon" style="width: 1em; height: 1em;vertical-align: middle;fill: currentColor;overflow: hidden;" viewBox="0 0 1024 1024" version="1.1" xmlns="http://www.w3.org/2000/svg"><path d="M802.368 684l0-274.176c0-142.784-103.328-261.184-239.168-285.28l0-21.792c0-18.848-15.296-34.112-34.112-34.112l-34.112 0c-18.848 0-34.112 15.264-34.112 34.112l0 21.888c-135.584 24.352-238.496 142.656-238.496 285.184l0 274.176-119.744 96.928 0 55.328 818.88 0 0-55.328-119.072-96.928zM887.328 802.112l-750.624 0 0-4.928 119.744-96.928 0-290.464c0-141.12 114.784-255.904 255.904-255.904 141.088 0 255.904 114.784 255.904 255.904l0 290.4 119.072 96.928 0 4.96z"  /><path d="M511.968 955.392c47.136 0 85.408-38.144 85.408-85.312l-170.72 0c0.032 47.136 38.24 85.312 85.344 85.312z"  /></svg>