<svg class="svg-icon" style="width: 1em; height: 1em;vertical-align: middle;fill: currentColor;overflow: hidden;" viewBox="0 0 1024 1024" version="1.1" xmlns="http://www.w3.org/2000/svg"><path d="M424.8576 668.0576c59.04384 0 114.81088-20.93056 159.19104-59.00288L799.78496 825.344c3.9936 4.01408 9.25696 6.02112 14.49984 6.02112 5.2224 0 10.46528-1.98656 14.45888-5.98016 8.00768-7.9872 8.02816-20.95104 0.04096-28.95872L612.864 579.97312c80.83456-96.54272 76.12416-241.11104-14.4384-331.8784-46.36672-46.4896-108.01152-72.0896-173.58848-72.0896s-127.22176 25.6-173.58848 72.0896c-95.66208 95.90784-95.66208 251.98592 0 347.89376C297.63584 642.4576 359.28064 668.0576 424.8576 668.0576zM280.2688 277.01248c38.62528-38.72768 89.96864-60.04736 144.5888-60.04736s105.96352 21.31968 144.5888 60.04736c79.7696 79.9744 79.7696 210.08384 0 290.05824-38.62528 38.72768-89.96864 60.04736-144.5888 60.04736s-105.96352-21.31968-144.5888-60.04736C200.51968 487.09632 200.51968 356.98688 280.2688 277.01248z"  /></svg>