<svg class="svg-icon" style="width: 1em;height: 1em;vertical-align: middle;fill: currentColor;overflow: hidden;" viewBox="0 0 1024 1024" version="1.1" xmlns="http://www.w3.org/2000/svg"><path d="M854.592 288.64L639.424 73.344A32 32 0 0 0 616.768 64H192a32 32 0 0 0-32 32v832a32 32 0 0 0 32 32h640a32 32 0 0 0 32-32V311.296a32.192 32.192 0 0 0-9.408-22.72v0.064z m-64.384 37.376h-188.16v-188.16l188.16 188.16z m1.792 561.984h-560V136h302.016V352c0 23.168 18.752 41.984 41.984 41.984h216v494.016z m-288-270.016H320a8 8 0 0 0-8 8v48c0 4.416 3.584 8 8 8h184A8 8 0 0 0 512 673.984v-48a8 8 0 0 0-8-8z m-192-128v48c0 4.416 3.584 8 8 8h384a8 8 0 0 0 8-8v-48A8 8 0 0 0 704 481.984H320a8 8 0 0 0-8 8z"  /></svg>